<svg width="21" height="31" viewBox="0 0 21 31" fill="none" xmlns="http://www.w3.org/2000/svg">
<path d="M9.70594 0.888378C13.7876 0.624969 17.5527 2.45147 19.6109 6.06972C21.4998 9.39032 21.5164 13.7274 19.327 16.9062C18.0423 18.7713 16.2808 19.7173 15.7955 22.1396C15.6012 23.1088 15.6941 23.9584 15.5865 24.8697C15.5728 24.9865 15.5382 25.1905 15.4169 25.2277L5.54417 25.1659L5.49773 25.0685C5.44892 23.6902 5.43613 22.2043 4.87503 20.9263C4.32436 19.672 3.22729 18.8021 2.37144 17.7823C-3.0779 11.2901 1.49188 1.41809 9.70594 0.888378ZM6.87914 23.7828L14.1734 23.7688C14.3269 22.9458 14.3402 22.1382 14.5629 21.319C15.124 19.2518 16.2822 18.4051 17.5594 16.8917C21.8761 11.7755 19.0009 3.93736 12.6631 2.52962C6.2081 1.09583 0.408082 6.28633 1.58714 13.0327C2.27192 16.9501 5.63658 17.9627 6.53699 21.5018C6.72797 22.2525 6.74835 23.0225 6.87914 23.7833V23.7828Z" fill="white"/>
<path d="M6.51694 27.6491C6.36055 27.6009 6.36813 26.6341 6.39941 26.4681C6.43069 26.3022 6.61077 26.2433 6.75151 26.2477L14.3808 26.253C14.4514 26.2645 14.5594 26.3089 14.6002 26.3673C14.6604 26.4537 14.6694 27.2907 14.6428 27.4311C14.631 27.4943 14.5092 27.6491 14.4779 27.6491H6.51646H6.51694Z" fill="white"/>
<path d="M7.6636 28.72L13.2963 28.7084C13.6901 28.7614 13.5134 29.2704 13.4214 29.516C13.2442 29.9883 12.7869 30.4799 12.322 30.6642C11.7282 30.8991 9.62932 30.9184 9.00378 30.7631C8.44742 30.6246 7.89723 30.146 7.66976 29.6125C7.58303 29.4084 7.34893 28.8169 7.6636 28.7209V28.72Z" fill="white"/>
<path d="M8.82068 7.69488H10.1026V6.91623C10.1026 6.86847 10.2618 6.69865 10.3201 6.67453C10.5423 6.58239 10.9295 6.69431 10.9295 6.9582V7.69488H12.2114V6.91623C12.2114 6.68515 12.7313 6.51581 12.9327 6.77102C12.9535 6.79755 13.0384 6.98474 13.0384 7.00018V7.69488C13.8914 7.55642 14.415 8.21398 14.3203 9.04232C14.6752 9.05679 15.4221 8.8947 15.3533 9.48037C15.3382 9.61015 15.1662 9.8422 15.0444 9.8422H14.3207V11.0628H15.0444C15.2922 11.0628 15.4249 11.4395 15.3079 11.6677C15.2823 11.7174 15.1249 11.8626 15.0856 11.8626H14.3207V13.1256H15.0856C15.1557 13.1256 15.3287 13.3239 15.3467 13.4088C15.4846 14.0567 14.6652 13.9231 14.279 13.925C14.3942 14.7302 13.8146 15.2778 13.0384 15.1881C13.0682 15.6054 13.0938 16.384 12.4474 16.1896C12.391 16.1727 12.2114 15.9672 12.2114 15.9247V15.1881H10.9295V15.8828C10.9295 15.8972 10.8134 16.0907 10.7859 16.1153C10.5812 16.2996 10.1026 16.1486 10.1026 15.9247V15.1881H8.82068V15.9247C8.82068 15.9971 8.62733 16.1698 8.54345 16.1891C7.90511 16.3377 7.98046 15.6116 7.9942 15.1876C7.22744 15.2884 6.58768 14.7312 6.71231 13.925H5.94744C5.80528 13.925 5.64368 13.6645 5.63894 13.5208C5.63467 13.4021 5.79675 13.1252 5.90622 13.1252H6.71279V11.8621H5.90622C5.78869 11.8621 5.64368 11.5785 5.6432 11.4622C5.6432 11.3358 5.84224 11.0623 5.94744 11.0623H6.71231V9.84171H5.94744C5.84224 9.84171 5.64273 9.56817 5.6432 9.44178C5.6432 9.32551 5.78821 9.04184 5.90622 9.04184H6.71279V8.43156C6.71279 8.37463 6.85685 8.1392 6.90235 8.07745C7.19427 7.6833 7.53642 7.6669 7.99468 7.69488V6.9582C7.99468 6.94373 8.11078 6.75027 8.13827 6.72567C8.34299 6.54138 8.82163 6.69238 8.82163 6.91623V7.69488H8.82068ZM9.14056 9.17837C8.7605 9.23819 8.44346 9.57396 8.36906 9.95074C8.27475 10.4298 8.26433 12.4686 8.38422 12.9167C8.50412 13.3649 8.89034 13.5965 9.33581 13.6322C9.9514 13.6814 11.1286 13.6915 11.7351 13.6303C12.2304 13.5806 12.6218 13.2482 12.6678 12.7272C12.7246 12.0773 12.7299 10.7183 12.6654 10.0738C12.6142 9.55804 12.2749 9.2324 11.7726 9.17258C11.2551 9.11131 9.6391 9.09973 9.14056 9.17837Z" fill="white"/>
<path d="M9.26341 9.9774L11.6964 9.96631C11.8206 9.97017 11.9201 10.0729 11.9239 10.1979C11.8689 10.9457 11.9897 11.7807 11.9239 12.5174C11.9087 12.6872 11.8822 12.8078 11.6964 12.8334C10.987 12.9304 10.0681 12.7548 9.33497 12.8334C9.19896 12.8247 9.12409 12.7336 9.1075 12.6018C9.01556 11.8734 9.1819 10.9485 9.1075 10.1979L9.26294 9.9774H9.26341Z" fill="white"/>
</svg>
