<svg width="13" height="18" viewBox="0 0 13 18" fill="none" xmlns="http://www.w3.org/2000/svg">
<path d="M8.08061 4.44555H9.82542C10.0219 4.44555 10.1983 4.91616 10.0142 5.07432C8.98791 6.07085 8.07057 7.17993 7.07771 8.20702C6.77512 8.51995 6.288 9.22003 5.83579 8.93136C5.38357 8.64269 4.94283 7.81598 4.44759 7.50208V10.4858C4.44759 10.6037 4.79847 10.89 4.94952 10.8497C6.19144 10.7575 7.60306 10.9724 8.82395 10.8521C9.05627 10.8293 9.37129 10.6532 9.37129 10.3888V6.82285H10.5425C10.6854 6.82285 11.0516 7.05233 11.1658 7.16052C11.5712 7.54622 12.4938 8.58011 12.8131 9.03034C12.9073 9.16327 12.968 9.31076 13.0005 9.47086V17.0797C12.8403 17.7885 12.3791 17.8972 11.7404 17.9355C8.25796 18.1422 4.57905 17.7744 1.07605 17.9355C0.500029 17.8913 0.0669343 17.673 0.000488281 17.0379L0.0024004 7.67237C0.0344283 7.37011 0.244283 7.05961 0.51676 6.93298C0.556914 6.91406 0.82222 6.82382 0.839429 6.82382H3.87491L2.25583 5.04667C2.12437 4.85503 2.21137 4.44652 2.46473 4.44652H4.20953V0.39445C4.20953 0.366796 4.31948 0.135374 4.3539 0.104323C4.43182 0.0349452 4.51786 0.0368859 4.61347 0.0281529C5.60108 -0.0625724 6.72158 0.101412 7.724 0.0291233C7.84112 0.000498695 8.08157 0.204752 8.08157 0.296933V4.44507L8.08061 4.44555ZM10.5186 17.3994V13.4938C10.5186 13.389 10.2666 13.1178 10.1376 13.1042L2.9418 13.0814C2.7568 13.0548 2.43987 13.3206 2.43987 13.4938V17.3994H10.5186Z" fill="white"/>
</svg>
