<svg width="17" height="17" viewBox="0 0 17 17" fill="none" xmlns="http://www.w3.org/2000/svg">
<path d="M2.32221 9.22074C3.49601 9.26273 4.74664 9.13676 5.91171 9.21147C6.96344 9.27881 7.7318 10.0592 7.80401 11.1078C7.74488 12.2473 7.88411 13.4674 7.80401 14.5973C7.73534 15.5647 7.05962 16.3192 6.1008 16.4648C4.85699 16.3887 3.48919 16.5681 2.25981 16.4648C1.28601 16.383 0.594214 15.508 0.529639 14.5698C0.447081 13.3712 0.56397 12.0466 0.563426 10.8414C0.725544 9.96701 1.43315 9.30581 2.32221 9.22046V9.22074Z" fill="white"/>
<path d="M2.32209 0.542311C3.5482 0.428066 4.96476 0.582937 6.20286 0.568759C7.1189 0.749532 7.74013 1.50316 7.80389 2.42939C7.74476 3.56883 7.88399 4.78899 7.80389 5.91889C7.73713 6.85984 7.01509 7.7119 6.04783 7.78797C4.8239 7.88395 3.47273 7.71681 2.23572 7.78361C1.23739 7.62301 0.594095 6.86638 0.52952 5.86436C0.452684 4.66983 0.559764 3.36298 0.563306 2.16327C0.724608 1.28858 1.43139 0.625472 2.32209 0.542311Z" fill="white"/>
<path d="M11.0157 9.22095C12.2421 9.11516 13.6333 9.2553 14.8692 9.2474C15.7373 9.40881 16.3923 10.1455 16.47 11.0265C16.4043 12.2063 16.5594 13.4837 16.47 14.6521C16.3989 15.5816 15.6894 16.3393 14.7671 16.4652C13.5279 16.3848 12.1492 16.5743 10.9261 16.4652C10.0708 16.3889 9.28881 15.5916 9.22178 14.7352C9.12697 13.5252 9.29562 12.1935 9.22178 10.9706C9.32396 10.0275 10.0743 9.3022 11.0154 9.22095H11.0157Z" fill="white"/>
<path d="M10.9899 0.538512C12.1699 0.42863 13.4895 0.600951 14.6837 0.533877C15.6387 0.629308 16.3867 1.38676 16.4714 2.34407C16.4057 3.52386 16.5608 4.80128 16.4714 5.96962C16.4005 6.89558 15.687 7.65548 14.7685 7.78281C13.5293 7.70238 12.1506 7.89187 10.9275 7.78281C10.0885 7.70783 9.29947 6.91902 9.22454 6.07869C9.11692 4.87135 9.30492 3.51159 9.22318 2.28817C9.31527 1.36522 10.0662 0.624673 10.9899 0.538785V0.538512Z" fill="white"/>
</svg>
