<svg width="18" height="17" viewBox="0 0 18 17" fill="none" xmlns="http://www.w3.org/2000/svg">
<g clip-path="url(#clip0_150_694)">
<path d="M15.3724 7.26148C14.5798 2.4694 9.06693 -0.171403 4.7409 2.45946C0.0870787 5.29058 0.26482 12.2699 5.12455 14.8137C8.6284 16.6477 12.5086 15.325 14.4885 12.1047C14.7493 11.6805 14.9853 10.8515 15.7099 11.3117C16.3883 11.7425 15.706 12.7325 15.3923 13.2229C12.7854 17.2973 7.06126 18.255 3.20824 15.2142C-1.39119 11.583 -0.991513 4.27034 4.0615 1.22901C9.36705 -1.96476 15.9668 1.42454 16.7812 7.26101C17.1416 7.32161 18.0356 7.05364 17.9992 7.61656L16.3641 9.90891C16.1368 10.0988 16.028 10.0116 15.86 9.84027C15.57 9.5439 14.5293 8.12739 14.3448 7.76711C14.3055 7.69041 14.2481 7.62792 14.2632 7.53276C14.2729 7.47074 14.44 7.26195 14.474 7.26195H15.3724V7.26148Z" fill="white"/>
<path d="M7.54203 8.59941C7.8475 8.55633 9.16356 8.5497 9.41075 8.64676C9.55304 8.70309 9.62589 8.84512 9.64337 8.9881C9.68902 9.36921 9.68125 10.2583 9.64434 10.6484C9.622 10.8889 9.54139 11.0196 9.27866 11.0494C8.89744 11.093 7.86012 11.0935 7.47987 11.0494C7.29388 11.0276 7.13993 10.9339 7.11419 10.7431C7.07048 10.4212 7.06951 9.21109 7.11953 8.8972C7.15547 8.67469 7.3371 8.62782 7.54203 8.59894V8.59941Z" fill="white"/>
<path d="M10.8919 7.13034C11.2091 7.07448 12.3411 7.08016 12.6786 7.11803C12.9034 7.1436 13.0171 7.25533 13.0428 7.47311C13.0729 7.72497 13.0797 9.11307 13.02 9.29913C12.9904 9.39145 12.8937 9.48046 12.801 9.5117C12.4873 9.61728 11.0595 9.62675 10.7584 9.51076C10.5991 9.44921 10.535 9.34364 10.5151 9.17983C10.4505 8.63869 10.5637 7.98299 10.517 7.42813C10.5462 7.27852 10.7487 7.15591 10.8915 7.13034H10.8919Z" fill="white"/>
<path d="M3.89881 6.32596C4.2237 6.26773 5.08813 6.28809 5.44313 6.31271C5.7515 6.33401 5.96858 6.33354 6.07348 6.64505C6.17838 6.95657 6.18518 7.98013 6.14535 8.32669C6.11767 8.56719 6.04337 8.70117 5.7821 8.73005C5.36445 8.77692 4.35677 8.77219 3.93281 8.73194C3.74681 8.71443 3.64434 8.66898 3.61763 8.47108C3.57344 8.14063 3.5715 6.89929 3.62346 6.5783C3.65114 6.40787 3.73127 6.35626 3.8993 6.32644L3.89881 6.32596Z" fill="white"/>
<path d="M8.91346 8.39775H7.7965C7.84361 7.34673 7.73434 6.24553 7.79456 5.20019C7.80379 5.04443 7.82758 4.73765 7.85624 4.59751C7.92471 4.26421 8.34624 4.13875 8.64005 4.28504C8.70221 4.31582 8.91346 4.53644 8.91346 4.58662V8.39775Z" fill="white"/>
<path d="M5.41691 8.91852V12.5403C5.41691 12.7117 5.0896 12.9332 4.90651 12.9455C4.71129 12.9588 4.29996 12.7798 4.29996 12.5876V8.91852H5.41691Z" fill="white"/>
<path d="M12.3615 9.77069V12.5403C12.3615 12.562 12.2876 12.696 12.2643 12.7296C11.9832 13.134 11.2445 12.9129 11.2445 12.5403V9.77069H12.3615Z" fill="white"/>
<path d="M12.3615 6.93007H11.2445V4.72861C11.2445 4.28832 11.8987 4.0393 12.2163 4.39674C12.242 4.42562 12.3615 4.6202 12.3615 4.63393V6.93007Z" fill="white"/>
<path d="M5.36835 6.17262H4.29996V4.68131C4.29996 4.29262 4.87689 4.09046 5.19207 4.33239C5.23772 4.36742 5.36835 4.55585 5.36835 4.58662V6.17262Z" fill="white"/>
<path d="M8.91347 11.333V12.5403C8.91347 12.9081 8.1753 13.1074 7.9184 12.7528C7.88538 12.7074 7.79651 12.4385 7.79651 12.3982V11.333H8.91347Z" fill="white"/>
</g>
<defs>
<clipPath id="clip0_150_694">
<rect width="18" height="17" fill="white"/>
</clipPath>
</defs>
</svg>
