<svg width="16" height="18" viewBox="0 0 16 18" fill="none" xmlns="http://www.w3.org/2000/svg">
<path fill-rule="evenodd" clip-rule="evenodd" d="M8 0C4.68629 0 2 2.68629 2 6V9L0.585787 10.4142C0.210714 10.7893 0 11.298 0 11.8284L0 13C0 14.1046 0.895431 15 2 15H4.12701C4.30416 15.686 4.66203 16.3189 5.17157 16.8284C5.92172 17.5786 6.93913 18 8 18C9.06087 18 10.0783 17.5786 10.8284 16.8284C11.338 16.3189 11.6958 15.686 11.873 15H14C15.1046 15 16 14.1046 16 13V11.8284C16 11.298 15.7893 10.7893 15.4142 10.4142L14 9V6C14 2.68629 11.3137 0 8 0ZM10.2913 15H5.70871C5.83253 15.2837 6.00912 15.5447 6.23223 15.7678C6.70107 16.2366 7.33696 16.5 8 16.5C8.66304 16.5 9.29893 16.2366 9.76777 15.7678C9.99088 15.5447 10.1675 15.2837 10.2913 15Z" fill="black"/>
<circle cx="14" cy="2" r="2" fill="#FF0000"/>
</svg>
