<svg width="14" height="14" viewBox="0 0 14 14" fill="none" xmlns="http://www.w3.org/2000/svg">
<path d="M6.12207 0.836347C6.50107 0.141406 7.49893 0.141407 7.87793 0.836348L9.26493 3.37959C9.40876 3.64331 9.66353 3.82841 9.95879 3.88371L12.8062 4.41692C13.5842 4.56262 13.8926 5.51164 13.3487 6.08684L11.3586 8.19186C11.1522 8.41014 11.0549 8.70964 11.0936 9.00754L11.4663 11.8803C11.5682 12.6653 10.7609 13.2518 10.0458 12.9124L7.42883 11.6701C7.15745 11.5413 6.84255 11.5413 6.57117 11.6701L3.95418 12.9124C3.23909 13.2518 2.43181 12.6653 2.53367 11.8803L2.90644 9.00754C2.94509 8.70964 2.84778 8.41014 2.64141 8.19186L0.65125 6.08684C0.107439 5.51164 0.415794 4.56262 1.19384 4.41692L4.04121 3.88371C4.33648 3.82841 4.59124 3.64331 4.73507 3.37959L6.12207 0.836347Z" fill="#D7B856"/>
</svg>
