<svg width="24" height="22" viewBox="0 0 24 22" fill="none" xmlns="http://www.w3.org/2000/svg">
<path d="M23.9894 18.2826C23.9894 18.5107 23.7109 18.6944 23.3665 18.6944C22.5947 18.6944 21.8251 18.6944 21.0534 18.6944C20.945 18.6944 20.8344 18.6944 20.7281 18.6797C20.59 18.6606 20.4603 18.6205 20.3391 18.5741C19.3441 18.1876 19.2995 17.4844 18.6362 16.9374C18.5023 16.9987 18.4597 17.0705 18.4045 17.1676C17.9644 17.9257 17.9601 19.5539 16.3763 19.725C15.4175 19.8285 15.0284 19.1316 14.8328 18.629C14.6075 18.0524 14.0951 14.3378 13.6551 14.2448C13.3936 14.1899 13.3192 14.5004 13.2575 14.6419C12.6112 16.1201 12.8621 20.2572 11.5801 21.1653C11.0167 21.5644 10.279 21.3954 9.84108 20.9963C8.63779 19.9024 8.9907 17.856 8.0085 16.6608C7.84268 16.6354 7.89158 16.703 7.84693 16.7706C7.40898 17.4295 7.36859 18.3122 7.09646 19.0218C6.85623 19.649 6.47781 20.5444 5.22349 20.3691C4.06272 20.2065 3.93303 18.9183 3.44831 18.3587C3.38666 18.2869 3.00824 17.9764 2.94659 17.9764H0.622907C0.278501 17.9764 0 17.7927 0 17.5646C0 17.3365 0.278501 17.1528 0.622907 17.1528C0.967313 17.1528 1.30959 17.1528 1.654 17.1528C2.1451 17.1528 2.72974 17.0937 3.20595 17.1718C3.30162 17.1866 3.39304 17.2119 3.4802 17.2394C4.78554 17.6491 4.67287 18.6057 5.2979 19.3343C5.60616 19.6933 5.81451 19.0703 5.89104 18.8803C6.20569 18.0862 6.32049 16.1222 7.5578 15.7527C8.71432 15.4085 9.22455 16.2574 9.4903 16.836C9.90486 17.7441 9.98565 18.7092 10.3407 19.6236C10.3875 19.7461 10.5979 20.3733 10.8382 20.3374C11.0082 20.3121 11.2506 19.1717 11.2867 18.9859C11.5333 17.685 11.4972 14.587 12.6261 13.6113C13.4297 12.9165 14.4544 13.398 14.8817 14.04C15.8278 15.457 15.409 17.3028 16.2339 18.7472H16.4039C17.0141 18.2003 17.08 16.1877 18.245 16.0103C20.0053 15.7442 19.9458 17.3598 20.9684 17.8666H23.3771C23.7215 17.8666 24 18.0503 24 18.2784L23.9894 18.2826Z" fill="#8A2BE2"/>
<path d="M7.09777 6.6148H6.43447V4.28336C6.43447 4.07429 6.2644 3.90535 6.05393 3.90535H5.7244C5.51393 3.90535 5.34385 4.07429 5.34385 4.28336V6.6148H4.68055C4.44457 6.6148 4.25323 6.80487 4.25323 7.03928V10.5259C4.25323 10.7603 4.44457 10.9504 4.68055 10.9504H5.34385V13.2818C5.34385 13.4909 5.51393 13.6598 5.7244 13.6598H6.05393C6.2644 13.6598 6.43447 13.4909 6.43447 13.2818V10.9504H7.09777C7.33376 10.9504 7.52509 10.7603 7.52509 10.5259V7.03928C7.52509 6.80487 7.33376 6.6148 7.09777 6.6148Z" fill="white"/>
<path d="M13.2029 4.96504H12.5396V2.6336C12.5396 2.42453 12.3695 2.25558 12.159 2.25558H11.8295C11.619 2.25558 11.449 2.42453 11.449 2.6336V4.96504H10.7857C10.5497 4.96504 10.3583 5.1551 10.3583 5.38951V8.87612C10.3583 9.11053 10.5497 9.30059 10.7857 9.30059H11.449V11.632C11.449 11.8411 11.619 12.01 11.8295 12.01H12.159C12.3695 12.01 12.5396 11.8411 12.5396 11.632V9.30059H13.2029C13.4389 9.30059 13.6302 9.11053 13.6302 8.87612V5.38951C13.6302 5.1551 13.4389 4.96504 13.2029 4.96504Z" fill="#8A2BE2"/>
<path d="M19.3119 3.31621H18.6486V0.984765C18.6486 0.775696 18.4785 0.60675 18.268 0.60675H17.9385C17.728 0.60675 17.558 0.775696 17.558 0.984765V3.31621H16.8947C16.6587 3.31621 16.4673 3.50627 16.4673 3.74068V7.22728C16.4673 7.46169 16.6587 7.65176 16.8947 7.65176H17.558V9.9832C17.558 10.1923 17.728 10.3612 17.9385 10.3612H18.268C18.4785 10.3612 18.6486 10.1923 18.6486 9.9832V7.65176H19.3119C19.5479 7.65176 19.7392 7.46169 19.7392 7.22728V3.74068C19.7392 3.50627 19.5479 3.31621 19.3119 3.31621Z" fill="white"/>
</svg>
