<svg width="15" height="14" viewBox="0 0 15 14" fill="none" xmlns="http://www.w3.org/2000/svg">
<path d="M1.5 13.75C1.2875 13.75 1.10938 13.6781 0.965625 13.5344C0.821875 13.3906 0.75 13.2125 0.75 13C0.75 12.7875 0.821875 12.6094 0.965625 12.4656C1.10938 12.3219 1.2875 12.25 1.5 12.25H2.25V7.75H1.5C1.2875 7.75 1.10938 7.67813 0.965625 7.53438C0.821875 7.39063 0.75 7.2125 0.75 7C0.75 6.7875 0.821875 6.60938 0.965625 6.46563C1.10938 6.32188 1.2875 6.25 1.5 6.25H2.25V1.75H1.5C1.2875 1.75 1.10938 1.67813 0.965625 1.53438C0.821875 1.39062 0.75 1.2125 0.75 1C0.75 0.7875 0.821875 0.609375 0.965625 0.465625C1.10938 0.321875 1.2875 0.25 1.5 0.25H13.5C13.7125 0.25 13.8906 0.321875 14.0344 0.465625C14.1781 0.609375 14.25 0.7875 14.25 1C14.25 1.2125 14.1781 1.39062 14.0344 1.53438C13.8906 1.67813 13.7125 1.75 13.5 1.75H12.75V6.25H13.5C13.7125 6.25 13.8906 6.32188 14.0344 6.46563C14.1781 6.60938 14.25 6.7875 14.25 7C14.25 7.2125 14.1781 7.39063 14.0344 7.53438C13.8906 7.67813 13.7125 7.75 13.5 7.75H12.75V12.25H13.5C13.7125 12.25 13.8906 12.3219 14.0344 12.4656C14.1781 12.6094 14.25 12.7875 14.25 13C14.25 13.2125 14.1781 13.3906 14.0344 13.5344C13.8906 13.6781 13.7125 13.75 13.5 13.75H1.5ZM3.75 12.25H11.25V7.75C11.0375 7.75 10.8594 7.67813 10.7156 7.53438C10.5719 7.39063 10.5 7.2125 10.5 7C10.5 6.7875 10.5719 6.60938 10.7156 6.46563C10.8594 6.32188 11.0375 6.25 11.25 6.25V1.75H3.75V6.25C3.9625 6.25 4.14063 6.32188 4.28438 6.46563C4.42813 6.60938 4.5 6.7875 4.5 7C4.5 7.2125 4.42813 7.39063 4.28438 7.53438C4.14063 7.67813 3.9625 7.75 3.75 7.75V12.25ZM7.5 10C8.125 10 8.65625 9.78438 9.09375 9.35313C9.53125 8.92188 9.75 8.4 9.75 7.7875C9.75 7.3 9.60938 6.88125 9.32812 6.53125C9.04688 6.18125 8.4375 5.4625 7.5 4.375C6.5625 5.45 5.95312 6.16563 5.67188 6.52188C5.39062 6.87813 5.25 7.3 5.25 7.7875C5.25 8.4 5.46875 8.92188 5.90625 9.35313C6.34375 9.78438 6.875 10 7.5 10Z" fill="white"/>
</svg>
